<svg width="36" height="24" viewBox="0 0 36 24" fill="none" xmlns="http://www.w3.org/2000/svg">
<path d="M20.0469 3.4375L18.1094 3.375L15.7969 23.0938L11.7969 23.2812L10.0156 8.03125L8.04688 22.8125L3.76562 22.9375L2.07812 3.84375L0.140625 3.90625L0.296875 0.875H6.01562L6.26562 3.6875L5.07812 3.84375L6.01562 19.6562L8.45312 4.0625L7.48438 3.90625L7.64062 1.1875L12.4219 1.03125L12.6094 3.59375L11.5469 3.90625L13.8594 19.1875L15.1094 3.375L13.9219 3.21875L14.1719 0.40625H19.8906L20.0469 3.4375ZM29.7031 13.5312C29.7031 14.3854 29.6719 15.2188 29.6094 16.0312L22.8906 16.1562C22.8906 16.375 22.901 16.6406 22.9219 16.9531C22.9427 17.2552 22.974 17.5781 23.0156 17.9219C23.0677 18.2552 23.1354 18.5885 23.2188 18.9219C23.3125 19.2448 23.4323 19.5417 23.5781 19.8125C23.724 20.0729 23.901 20.2865 24.1094 20.4531C24.3281 20.6094 24.5885 20.6875 24.8906 20.6875C25.2135 20.6875 25.4896 20.6042 25.7188 20.4375C25.9583 20.2604 26.151 20.0469 26.2969 19.7969C26.4531 19.5365 26.5729 19.2552 26.6562 18.9531C26.7396 18.651 26.7969 18.3646 26.8281 18.0938H29.5469C29.4531 18.6875 29.2969 19.2865 29.0781 19.8906C28.8594 20.4948 28.5677 21.0417 28.2031 21.5312C27.8385 22.0208 27.3958 22.4219 26.875 22.7344C26.3542 23.0365 25.7448 23.1875 25.0469 23.1875C24.3177 23.1875 23.6875 23.0521 23.1562 22.7812C22.6354 22.5 22.1927 22.1302 21.8281 21.6719C21.4635 21.2135 21.1667 20.6875 20.9375 20.0938C20.7083 19.4896 20.5312 18.8698 20.4062 18.2344C20.2917 17.5885 20.2135 16.9427 20.1719 16.2969C20.1302 15.651 20.1094 15.0521 20.1094 14.5C20.1094 14 20.1354 13.4583 20.1875 12.875C20.25 12.2917 20.349 11.7135 20.4844 11.1406C20.6198 10.5677 20.8021 10.0156 21.0312 9.48438C21.2708 8.95312 21.5677 8.48958 21.9219 8.09375C22.276 7.6875 22.6979 7.36458 23.1875 7.125C23.6771 6.875 24.2448 6.75 24.8906 6.75C25.9948 6.75 26.8646 6.92708 27.5 7.28125C28.1354 7.625 28.6146 8.10417 28.9375 8.71875C29.2708 9.32292 29.4792 10.0417 29.5625 10.875C29.6562 11.6979 29.7031 12.5833 29.7031 13.5312ZM26.9844 12.625C26.9844 12.3125 26.9635 11.9583 26.9219 11.5625C26.8906 11.1667 26.8073 10.7917 26.6719 10.4375C26.5469 10.0833 26.3594 9.78646 26.1094 9.54688C25.8594 9.30729 25.526 9.1875 25.1094 9.1875C24.7448 9.1875 24.4375 9.27083 24.1875 9.4375C23.9375 9.59375 23.7292 9.80208 23.5625 10.0625C23.3958 10.3229 23.2656 10.625 23.1719 10.9688C23.0781 11.3021 23.0104 11.6458 22.9688 12C22.9271 12.3438 22.8958 12.6823 22.875 13.0156C22.8646 13.349 22.8594 13.6458 22.8594 13.9062H26.8906C26.9531 13.4688 26.9844 13.0417 26.9844 12.625ZM35.25 21.2188C35.25 21.4896 35.1979 21.7448 35.0938 21.9844C34.9896 22.224 34.8438 22.4323 34.6562 22.6094C34.4792 22.7865 34.2656 22.9271 34.0156 23.0312C33.776 23.1354 33.5208 23.1875 33.25 23.1875C32.9792 23.1875 32.724 23.1354 32.4844 23.0312C32.2448 22.9271 32.0365 22.7865 31.8594 22.6094C31.6823 22.4323 31.5417 22.224 31.4375 21.9844C31.3333 21.7448 31.2812 21.4896 31.2812 21.2188C31.2812 20.9479 31.3333 20.6927 31.4375 20.4531C31.5417 20.2031 31.6823 19.9896 31.8594 19.8125C32.0365 19.625 32.2448 19.4792 32.4844 19.375C32.724 19.2708 32.9792 19.2188 33.25 19.2188C33.5208 19.2188 33.776 19.2708 34.0156 19.375C34.2656 19.4792 34.4792 19.625 34.6562 19.8125C34.8438 19.9896 34.9896 20.2031 35.0938 20.4531C35.1979 20.6927 35.25 20.9479 35.25 21.2188Z" fill="#162D55"/>
</svg>
